<?xml version="1.0" standalone="no"?><!-- Generator: Gravit.io --><svg xmlns="http://www.w3.org/2000/svg" xmlns:xlink="http://www.w3.org/1999/xlink" style="isolation:isolate" viewBox="0 0 520 200" width="520" height="200"><defs><clipPath id="_clipPath_BlPI6AacrsCl3CIx878ObkcYPPyU2Xup"><rect width="520" height="200"/></clipPath></defs><g clip-path="url(#_clipPath_BlPI6AacrsCl3CIx878ObkcYPPyU2Xup)"><clipPath id="_clipPath_eqVE2nZGTUpGkhOWPBmiw9gCDN0ZNhM2"><rect x="9" y="2" width="511" height="198" transform="matrix(1,0,0,1,0,0)" fill="rgb(255,255,255)"/></clipPath><g clip-path="url(#_clipPath_eqVE2nZGTUpGkhOWPBmiw9gCDN0ZNhM2)"><g id="组"><g id="组"><path d=" M 417.259 7.154 C 390.228 7.154 365.882 18.589 348.767 36.887 C 339.604 26.33 326.08 19.654 310.998 19.654 C 283.384 19.654 260.996 42.042 260.996 69.656 C 260.996 70.069 261.002 70.488 261.013 70.902 C 232.476 76.69 211 101.914 211 132.157 C 211 166.669 238.983 194.657 273.501 194.657 L 417.259 194.657 C 469.034 194.657 511 152.681 511 100.907 C 511 49.126 469.034 7.154 417.259 7.154 Z " fill="rgb(215,220,226)"/><path d=" M 475.365 27.333 C 487.995 43.304 495.55 63.493 495.55 85.439 C 495.55 137.219 453.574 179.195 401.788 179.195 L 258.035 179.195 C 244.727 179.195 232.392 175.027 222.255 167.937 C 233.553 184.088 252.293 194.656 273.502 194.656 L 417.259 194.656 C 469.034 194.656 511 152.68 511 100.905 C 511 71.076 497.068 44.504 475.365 27.333 Z " fill="rgb(204,209,217)"/></g><g id="组"><path d=" M 107.839 10.077 C 134.022 10.077 157.603 21.161 174.185 38.883 C 183.062 28.656 196.165 22.187 210.771 22.187 C 237.53 22.187 259.218 43.877 259.218 70.63 C 259.218 71.036 259.207 71.437 259.202 71.838 C 286.844 77.445 307.656 101.883 307.656 131.182 C 307.656 164.618 280.545 191.735 247.104 191.735 L 107.839 191.735 C 57.668 191.735 17 151.077 17 100.907 C 17 50.74 57.668 10.077 107.839 10.077 Z " fill="rgb(170,178,188)"/><path d=" M 51.534 29.627 C 39.298 45.105 31.99 64.66 31.99 85.927 C 31.99 136.087 72.657 176.754 122.818 176.754 L 262.088 176.754 C 274.981 176.754 286.932 172.716 296.753 165.846 C 285.807 181.495 267.651 191.733 247.104 191.733 L 107.839 191.733 C 57.668 191.733 17 151.076 17 100.906 C 17 72.007 30.497 46.262 51.534 29.627 Z " fill="rgb(148,157,168)"/></g></g></g><clipPath id="_clipPath_UUi3YOkvh5Qzvp4pRYiJOcHuxdIME7NJ"><rect x="162" y="357.5" width="200" height="200" transform="matrix(1,0,0,1,0,0)" fill="rgb(255,255,255)"/></clipPath><g clip-path="url(#_clipPath_UUi3YOkvh5Qzvp4pRYiJOcHuxdIME7NJ)"><g id="组"><g id="组"><path d=" M 321.788 404.136 C 311.209 404.136 301.68 408.611 294.981 415.773 C 291.395 411.641 286.102 409.028 280.199 409.028 C 269.391 409.028 260.629 417.79 260.629 428.598 C 260.629 428.76 260.631 428.924 260.635 429.086 C 249.466 431.351 241.061 441.224 241.061 453.06 C 241.061 466.568 252.013 477.522 265.523 477.522 L 321.788 477.522 C 342.052 477.522 358.477 461.093 358.477 440.83 C 358.477 420.563 342.052 404.136 321.788 404.136 Z " fill="rgb(215,220,226)"/><path d=" M 344.53 412.033 C 349.474 418.284 352.431 426.186 352.431 434.776 C 352.431 455.042 336.002 471.471 315.733 471.471 L 259.47 471.471 C 254.261 471.471 249.433 469.839 245.466 467.064 C 249.888 473.386 257.222 477.522 265.523 477.522 L 321.788 477.522 C 342.052 477.522 358.477 461.093 358.477 440.829 C 358.477 429.154 353.025 418.754 344.53 412.033 Z " fill="rgb(204,209,217)"/></g><g id="组"><path d=" M 200.685 405.28 C 210.932 405.28 220.162 409.618 226.652 416.554 C 230.126 412.551 235.254 410.019 240.971 410.019 C 251.444 410.019 259.933 418.509 259.933 428.979 C 259.933 429.138 259.928 429.295 259.926 429.452 C 270.745 431.647 278.891 441.212 278.891 452.679 C 278.891 465.765 268.28 476.379 255.191 476.379 L 200.685 476.379 C 181.048 476.379 165.131 460.466 165.131 440.83 C 165.131 421.195 181.048 405.28 200.685 405.28 Z " fill="rgb(170,178,188)"/><path d=" M 178.647 412.931 C 173.858 418.989 170.998 426.643 170.998 434.967 C 170.998 454.599 186.915 470.515 206.547 470.515 L 261.056 470.515 C 266.102 470.515 270.78 468.935 274.623 466.246 C 270.339 472.371 263.233 476.378 255.191 476.378 L 200.685 476.378 C 181.048 476.378 165.131 460.465 165.131 440.829 C 165.131 429.518 170.414 419.442 178.647 412.931 Z " fill="rgb(148,157,168)"/></g></g></g></g></svg>